<?xml version="1.0" standalone="no"?>
<!DOCTYPE svg PUBLIC "-//W3C//DTD SVG 20010904//EN"
 "http://www.w3.org/TR/2001/REC-SVG-20010904/DTD/svg10.dtd">
<svg version="1.0" xmlns="http://www.w3.org/2000/svg"
 width="52.000000pt" height="52.000000pt" viewBox="0 0 52.000000 52.000000"
 preserveAspectRatio="xMidYMid meet">

<g transform="translate(0.000000,52.000000) scale(0.100000,-0.100000)"
fill="#666666" stroke="none">
<path d="M235 510 c-3 -5 -17 -10 -31 -10 -13 0 -29 -9 -36 -20 -8 -12 -24
-20 -40 -20 -16 0 -37 -9 -48 -20 -19 -19 -20 -33 -20 -210 0 -247 -15 -230
200 -230 215 0 200 -17 200 230 0 177 -1 191 -20 210 -11 11 -32 20 -48 20
-16 0 -32 8 -40 20 -7 11 -23 20 -36 20 -14 0 -28 5 -31 10 -3 6 -15 10 -25
10 -10 0 -22 -4 -25 -10z m85 -70 c0 -18 -7 -20 -60 -20 -53 0 -60 2 -60 20 0
18 7 20 60 20 53 0 60 -2 60 -20z m-145 -50 c3 -5 42 -10 85 -10 43 0 82 5 85
10 3 6 17 10 31 10 l24 0 0 -170 0 -170 -140 0 -140 0 0 170 0 170 24 0 c14 0
28 -4 31 -10z"/>
<path d="M285 260 c-44 -45 -51 -48 -65 -35 -21 19 -46 19 -53 1 -6 -14 51
-76 70 -76 6 0 37 30 68 66 50 57 56 67 44 80 -13 12 -21 7 -64 -36z"/>
</g>
</svg>
