<?xml version="1.0" standalone="no"?>
<!DOCTYPE svg PUBLIC "-//W3C//DTD SVG 20010904//EN"
 "http://www.w3.org/TR/2001/REC-SVG-20010904/DTD/svg10.dtd">
<svg version="1.0" xmlns="http://www.w3.org/2000/svg"
 width="48.000000pt" height="48.000000pt" viewBox="0 0 48.000000 48.000000"
 preserveAspectRatio="xMidYMid meet">

<g transform="translate(0.000000,48.000000) scale(0.100000,-0.100000)"
fill="#666666" stroke="none">
<path d="M80 380 c-17 -34 -20 -58 -20 -180 l0 -140 90 0 90 0 0 38 c0 74 68
142 143 142 l37 0 0 50 c0 31 -8 66 -20 90 l-20 40 -140 0 -140 0 -20 -40z
m280 -4 c0 -2 3 -11 6 -20 5 -14 -10 -16 -125 -16 -72 0 -131 2 -131 4 0 2 3
11 6 20 5 13 26 16 125 16 65 0 119 -2 119 -4z m-60 -96 c0 -18 -7 -20 -60
-20 -53 0 -60 2 -60 20 0 18 7 20 60 20 53 0 60 -2 60 -20z"/>
<path d="M331 186 c-87 -48 -50 -186 49 -186 51 0 100 49 100 99 0 75 -83 124
-149 87z m105 -57 c3 -6 -10 -27 -30 -47 l-36 -37 -27 28 c-21 20 -25 29 -16
38 9 9 16 9 28 -1 14 -11 19 -10 38 8 24 25 33 27 43 11z"/>
</g>
</svg>
