<?xml version="1.0" standalone="no"?>
<!DOCTYPE svg PUBLIC "-//W3C//DTD SVG 20010904//EN"
 "http://www.w3.org/TR/2001/REC-SVG-20010904/DTD/svg10.dtd">
<svg version="1.0" xmlns="http://www.w3.org/2000/svg"
 width="64.000000pt" height="64.000000pt" viewBox="0 0 64.000000 64.000000"
 preserveAspectRatio="xMidYMid meet">

<g transform="translate(0.000000,64.000000) scale(0.100000,-0.100000)"
fill="#666666" stroke="none">
<path d="M338 378 l-3 -161 -70 -19 c-190 -52 -205 -58 -205 -79 0 -15 5 -19
18 -15 51 15 308 86 313 86 4 0 12 -14 19 -30 30 -73 140 -78 176 -9 46 89
-40 179 -130 137 -14 -6 -33 -22 -41 -35 -29 -44 -35 -26 -35 112 l0 135 110
0 c103 0 110 1 110 20 0 19 -7 20 -130 20 l-130 0 -2 -162z m202 -138 c11 -11
20 -29 20 -40 0 -26 -34 -60 -60 -60 -11 0 -29 9 -40 20 -11 11 -20 29 -20 40
0 11 9 29 20 40 11 11 29 20 40 20 11 0 29 -9 40 -20z"/>
<path d="M135 413 c-50 -15 -91 -27 -93 -28 -1 -1 9 -46 24 -99 22 -75 31 -95
43 -92 128 37 191 59 191 68 0 29 -53 178 -63 177 -7 0 -52 -12 -102 -26z
m102 -73 c7 -25 11 -50 9 -56 -2 -6 -24 -16 -49 -22 -24 -7 -51 -14 -60 -18
-12 -4 -19 8 -32 51 -9 32 -15 58 -13 60 8 7 105 34 118 32 8 -1 20 -22 27
-47z"/>
</g>
</svg>
